<svg width="24" height="24" viewBox="0 0 24 24" fill="none" xmlns="http://www.w3.org/2000/svg">
<mask id="mask0_942_446" style="mask-type:alpha" maskUnits="userSpaceOnUse" x="0" y="0" width="24" height="24">
<rect width="24" height="24" fill="#D9D9D9"/>
</mask>
<g mask="url(#mask0_942_446)">
<path d="M17 17C15.8 17 14.7417 16.6208 13.825 15.8625C12.9083 15.1042 12.3333 14.15 12.1 13H6.8C6.6 13.45 6.29167 13.8125 5.875 14.0875C5.45833 14.3625 5 14.5 4.5 14.5C3.8 14.5 3.20833 14.2583 2.725 13.775C2.24167 13.2917 2 12.7 2 12C2 11.3 2.24167 10.7083 2.725 10.225C3.20833 9.74167 3.8 9.5 4.5 9.5C5 9.5 5.45833 9.6375 5.875 9.9125C6.29167 10.1875 6.6 10.55 6.8 11H12.1C12.3333 9.85 12.9083 8.89583 13.825 8.1375C14.7417 7.37917 15.8 7 17 7C18.3833 7 19.5625 7.4875 20.5375 8.4625C21.5125 9.4375 22 10.6167 22 12C22 13.3833 21.5125 14.5625 20.5375 15.5375C19.5625 16.5125 18.3833 17 17 17ZM17 15C17.8333 15 18.5417 14.7083 19.125 14.125C19.7083 13.5417 20 12.8333 20 12C20 11.1667 19.7083 10.4583 19.125 9.875C18.5417 9.29167 17.8333 9 17 9C16.1667 9 15.4583 9.29167 14.875 9.875C14.2917 10.4583 14 11.1667 14 12C14 12.8333 14.2917 13.5417 14.875 14.125C15.4583 14.7083 16.1667 15 17 15Z" fill="#1C1B1F"/>
</g>
</svg>